<?xml version="1.0" standalone="no"?>
<!DOCTYPE svg PUBLIC "-//W3C//DTD SVG 20010904//EN"
 "http://www.w3.org/TR/2001/REC-SVG-20010904/DTD/svg10.dtd">
<svg version="1.0" xmlns="http://www.w3.org/2000/svg"
 width="512.000000pt" height="512.000000pt" viewBox="0 0 512.000000 512.000000"
 preserveAspectRatio="xMidYMid meet">

<g transform="translate(0.000000,512.000000) scale(0.100000,-0.100000)"
fill="#000000" stroke="none">
<path d="M2311 5024 c-926 -112 -1667 -832 -1806 -1755 -135 -894 331 -1781
1140 -2174 164 -80 243 -108 430 -154 l150 -38 140 -244 c201 -349 189 -349
390 1 l141 244 119 27 c833 188 1454 849 1602 1704 24 141 24 509 0 650 -67
387 -226 729 -475 1025 -439 523 -1143 797 -1831 714z m536 -653 c400 -86 734
-322 943 -667 88 -144 151 -310 186 -489 24 -122 25 -375 1 -502 -111 -601
-569 -1059 -1170 -1170 -127 -24 -380 -23 -502 1 -179 35 -345 98 -489 186
-634 384 -871 1175 -555 1849 65 140 162 275 284 396 228 229 490 360 815 411
118 18 367 10 487 -15z"/>
<path d="M1983 3617 c-497 -496 -543 -545 -543 -575 0 -22 8 -41 25 -57 24
-25 27 -25 200 -25 l175 0 0 -455 0 -456 25 -24 24 -25 671 0 671 0 24 25 25
24 0 456 0 455 175 0 c173 0 176 0 200 25 17 16 25 35 25 57 0 30 -46 79 -543
575 -508 509 -544 543 -577 543 -33 0 -69 -34 -577 -543z m859 -334 l278 -278
0 -422 0 -423 -119 0 -120 0 -3 203 c-3 191 -4 205 -28 252 -31 64 -91 124
-155 155 -41 20 -65 25 -135 25 -70 0 -94 -5 -135 -25 -64 -31 -124 -91 -155
-155 -24 -47 -25 -61 -28 -252 l-3 -203 -120 0 -119 0 0 422 0 423 277 277
c153 153 280 278 283 278 3 0 130 -125 282 -277z m-192 -673 c59 -42 70 -83
70 -277 l0 -173 -160 0 -160 0 0 174 c0 181 6 214 43 255 51 55 145 65 207 21z"/>
<path d="M2480 3347 c-49 -16 -133 -102 -148 -153 -28 -94 -8 -169 63 -239 51
-52 102 -75 165 -75 63 0 114 23 165 75 98 97 101 222 8 325 -65 72 -158 97
-253 67z"/>
<path d="M1680 160 l0 -80 880 0 880 0 0 80 0 80 -880 0 -880 0 0 -80z"/>
</g>
</svg>
