<svg width="320" height="63" viewBox="0 0 320 63" fill="none" xmlns="http://www.w3.org/2000/svg">
<rect width="320" height="63" rx="12" fill="#FEE500"/>
<path fill-rule="evenodd" clip-rule="evenodd" d="M101 20.3C94.3723 20.3 89 24.4507 89 29.5698C89 32.7534 91.0779 35.56 94.2421 37.2293L92.9107 42.0927C92.7931 42.5224 93.2846 42.865 93.662 42.6159L99.4978 38.7643C99.9903 38.8118 100.491 38.8396 101 38.8396C107.627 38.8396 113 34.6891 113 29.5698C113 24.4507 107.627 20.3 101 20.3Z" fill="black"/>
<path d="M131.736 25.4316C131.719 29.9492 130.189 34.0801 124.564 36.8398L123.791 35.7852C126.735 34.3613 128.502 32.5508 129.451 30.4414L124.09 30.9512L123.861 29.7383L129.873 29.334C130.146 28.4551 130.304 27.5322 130.365 26.5742H124.652V25.4316H131.736ZM135.727 23.7969V30.1602H138.258V31.3203H135.727V39.4238H134.355V23.7969H135.727ZM147.293 25.4316C147.275 29.9492 145.746 34.0801 140.121 36.8398L139.348 35.7852C142.292 34.3613 144.059 32.5508 145.008 30.4414L139.646 30.9512L139.418 29.7383L145.43 29.334C145.702 28.4551 145.86 27.5322 145.922 26.5742H140.209V25.4316H147.293ZM151.283 23.7969V30.1602H153.814V31.3203H151.283V39.4238H149.912V23.7969H151.283ZM161.865 24.8164C165.188 24.834 167.578 26.4512 167.578 28.9121C167.578 31.2412 165.504 32.7881 162.533 32.9727V36.2598H169.055V37.4199H154.746V36.2598H161.18V32.9727C158.218 32.7793 156.152 31.2324 156.152 28.9121C156.152 26.4512 158.543 24.834 161.865 24.8164ZM161.865 25.959C159.334 25.959 157.488 27.1543 157.488 28.9121C157.488 30.7227 159.334 31.8828 161.865 31.9004C164.396 31.8828 166.242 30.7227 166.242 28.9121C166.242 27.1543 164.396 25.959 161.865 25.959ZM189.129 36.3301V37.4902H174.82V36.3301H181.254V33.377H176.613V28.5605H185.965V26.0996H176.578V24.957H187.318V29.6855H177.984V32.2344H187.688V33.377H182.607V36.3301H189.129ZM202.699 25.4668V27.0312C202.699 29 202.699 31.2324 202.119 34.625L200.713 34.4844C201.346 31.2852 201.346 28.9473 201.346 27.0312V26.6094H191.924V25.4668H202.699ZM204.615 35.9785V37.1211H190.377V35.9785H204.615ZM218.836 23.8145V35.2402H217.465V23.8145H218.836ZM219.328 37.9297V39.0898H208.746V34.0801H210.117V37.9297H219.328ZM210.398 24.9043C212.736 24.9043 214.494 26.4863 214.494 28.7363C214.494 31.0215 212.736 32.5859 210.398 32.5859C208.061 32.5859 206.303 31.0215 206.303 28.7363C206.303 26.4863 208.061 24.9043 210.398 24.9043ZM210.398 26.1172C208.816 26.1172 207.639 27.207 207.656 28.7363C207.639 30.3008 208.816 31.373 210.398 31.373C211.945 31.373 213.141 30.3008 213.141 28.7363C213.141 27.207 211.945 26.1172 210.398 26.1172Z" fill="black" fill-opacity="0.85"/>
</svg>
